<svg width="19" height="20" viewBox="0 0 19 20" fill="none" xmlns="http://www.w3.org/2000/svg">
<path d="M5.37722 0.996259C5.90857 0.729042 6.85939 0.391505 7.47463 0.2368C8.25766 0.0399035 8.90086 -0.0304167 9.64195 0.0117754C10.2152 0.0399035 11.0123 0.124288 11.3898 0.208672C11.8093 0.30712 12.2567 0.518081 12.5084 0.75717C12.7461 0.982195 12.9698 1.34786 13.0258 1.57288C13.0677 1.79791 13.0397 2.16357 12.9419 2.40266C12.844 2.62769 12.5503 2.99335 12.2847 3.20431C12.019 3.41528 11.5016 3.71062 11.1101 3.87939C10.7326 4.04816 9.80974 4.32944 9.08264 4.52634C8.35554 4.72323 7.39073 5.00451 6.95727 5.15922C6.50982 5.29986 6.17424 5.49676 6.21618 5.56708C6.25813 5.6374 6.32805 5.67959 6.39796 5.65146C6.45389 5.60927 7.69835 5.45456 9.15255 5.29986C10.6068 5.13109 12.1868 4.90606 12.6482 4.77949C13.1097 4.66698 13.7529 4.41382 14.0884 4.23099C14.41 4.03409 14.8016 3.66843 14.9554 3.41528C15.1092 3.17619 15.235 2.7402 15.235 2.47298C15.221 1.98074 15.221 1.98074 15.5426 2.20577C15.7244 2.33234 15.9901 2.65582 16.1299 2.90897C16.3536 3.31683 16.3676 3.45747 16.2418 3.90752C16.1439 4.20286 15.8642 4.61072 15.6265 4.80762C15.3749 5.01858 14.8855 5.32799 14.5359 5.49676C14.1863 5.67959 13.4033 5.9468 12.7881 6.11557C12.1728 6.27028 10.5089 6.55156 9.08264 6.74846C7.6564 6.94535 6.03441 7.22663 5.48908 7.3954C4.92978 7.55011 4.09081 7.85952 3.62938 8.0986C3.16796 8.33769 2.55272 8.73149 2.27306 8.97058C1.99341 9.22373 1.518 9.81442 1.22436 10.2785C0.930724 10.7426 0.65107 11.3333 0.623104 11.5724C0.581156 11.8256 0.483277 12.0365 0.413364 12.0365C0.34345 12.0365 0.231588 11.924 0.18964 11.7834C0.13371 11.6568 0.0637961 10.8833 0.021848 10.0676C-0.0340828 8.85806 0.00786528 8.36582 0.259554 7.3954C0.413364 6.73439 0.734966 5.82023 0.958689 5.35611C1.19639 4.892 1.68579 4.13254 2.04934 3.66843C2.41289 3.21838 3.09804 2.52924 3.55947 2.14951C4.0209 1.78385 4.84588 1.24941 5.37722 0.996259Z" fill="white"/>
<path d="M16.074 6.3406C16.4935 6.00306 16.9968 5.46863 17.1786 5.17328C17.3604 4.86387 17.5841 4.65291 17.668 4.70917C17.7379 4.75136 17.9756 5.17328 18.1854 5.6374C18.3951 6.10151 18.6748 6.95942 18.8006 7.53604C18.9964 8.36582 19.0383 8.92838 18.9684 10.1379C18.9125 11.2911 18.8006 11.9522 18.521 12.7397C18.3252 13.3164 17.9197 14.1743 17.6401 14.6384C17.3604 15.1025 16.8291 15.7916 16.4795 16.1854C16.1299 16.5652 15.4028 17.184 14.8715 17.5637C14.3122 17.9434 13.4033 18.4076 12.7181 18.6466C12.061 18.8717 11.0262 19.1248 10.411 19.2233C9.46017 19.3639 9.12459 19.3498 8.17376 19.1529C7.55852 19.0123 6.88735 18.7873 6.66363 18.6326C6.45389 18.4919 6.11831 18.0278 5.92255 17.62C5.65688 17.0715 5.57298 16.6636 5.559 15.9745C5.559 15.2713 5.64289 14.8915 5.90857 14.3571C6.09034 13.9633 6.50982 13.4148 6.83142 13.1195C7.13904 12.8382 7.69835 12.4444 8.0619 12.2616C8.43943 12.0787 9.30636 11.7553 9.99151 11.5443C10.6767 11.3333 11.6555 10.9817 12.1588 10.7426C12.6622 10.5176 13.3753 10.1379 13.7668 9.88474C14.1444 9.64565 14.41 9.42062 14.3262 9.3925C14.2423 9.36437 13.7808 9.47688 13.2774 9.63159C12.7741 9.78629 11.5576 10.0816 10.5508 10.2785C9.54407 10.4754 8.22969 10.7286 7.61445 10.8552C6.99922 10.9817 6.17424 11.2349 5.7967 11.4318C5.40519 11.6287 4.85986 12.0084 4.56623 12.3038C4.27259 12.585 3.89506 13.0632 3.72726 13.3726C3.50354 13.8086 3.43363 14.1743 3.44761 14.99C3.44761 15.6229 3.54549 16.2839 3.68532 16.6355C3.81116 16.973 3.86709 17.2402 3.79718 17.2402C3.74125 17.2543 3.44761 16.9871 3.15397 16.6495C2.84635 16.312 2.45484 15.7354 2.27306 15.3416C2.03536 14.8072 1.95146 14.3852 1.95146 13.5836C1.95146 12.7538 2.02137 12.3881 2.28705 11.8256C2.46882 11.4458 2.84635 10.9114 3.12601 10.6723C3.40566 10.4192 3.92302 10.0535 4.28657 9.87067C4.6641 9.68784 5.26536 9.43469 5.65688 9.32218C6.03441 9.1956 6.66363 9.02683 7.05515 8.95651C7.43268 8.88619 8.56528 8.71742 9.57203 8.59085C10.5788 8.46427 11.8372 8.23924 12.3686 8.0986C12.8999 7.95796 13.7948 7.64855 14.3262 7.3954C14.8575 7.15631 15.6545 6.67814 16.074 6.3406Z" fill="white"/>
</svg>
