<svg width="31" height="30" viewBox="0 0 31 30" fill="none" xmlns="http://www.w3.org/2000/svg">
<rect width="31" height="30" rx="8" fill="#27272A"/>
<path d="M9.47766 8.01414C9.51594 8.01398 9.55422 8.01381 9.59365 8.01365C9.63547 8.01365 9.67729 8.01366 9.72038 8.01367C9.76499 8.01353 9.8096 8.0134 9.85556 8.01326C9.97928 8.01293 10.103 8.01276 10.2267 8.01266C10.3602 8.01252 10.4937 8.01217 10.6272 8.01185C10.9495 8.01113 11.2719 8.01076 11.5942 8.01043C11.7461 8.01027 11.898 8.01008 12.05 8.00988C12.5552 8.00926 13.0605 8.00873 13.5657 8.00847C13.6968 8.0084 13.8278 8.00833 13.9589 8.00826C14.0078 8.00823 14.0078 8.00823 14.0576 8.0082C14.5849 8.0079 15.1123 8.00697 15.6396 8.00579C16.1815 8.00457 16.7233 8.00392 17.2651 8.0038C17.5692 8.00372 17.8732 8.0034 18.1773 8.00247C18.4363 8.00167 18.6953 8.00138 18.9543 8.00174C19.0863 8.0019 19.2183 8.00184 19.3503 8.00112C19.4938 8.00035 19.6373 8.00074 19.7808 8.00122C19.822 8.00081 19.8632 8.00041 19.9056 8C20.4431 8.00432 20.9181 8.19383 21.3107 8.55902C21.6216 8.8934 21.7386 9.29177 21.7355 9.74104C21.7213 10.0877 21.61 10.3995 21.4962 10.7245C21.4791 10.7737 21.4621 10.8229 21.445 10.872C21.3346 11.1906 21.2224 11.5085 21.1097 11.8262C21.0194 12.0808 20.9306 12.3359 20.8427 12.5913C20.8285 12.6325 20.8143 12.6737 20.7996 12.7162C20.7075 12.9842 20.6161 13.2525 20.5249 13.5209C20.4777 13.6596 20.4306 13.7984 20.3834 13.9372C20.3716 13.9718 20.3598 14.0064 20.3477 14.042C20.1663 14.5751 19.9811 15.1066 19.7911 15.6366C19.7364 15.7897 19.6828 15.943 19.6309 16.097C19.3676 16.878 18.9932 17.4831 18.2378 17.8673C18.2138 17.8795 18.1898 17.8918 18.165 17.9043C17.6306 18.1637 17.0267 18.1145 16.4477 18.1121C16.3702 18.1119 16.2927 18.1117 16.2152 18.1116C16.05 18.1113 15.8848 18.1108 15.7195 18.1103C15.4661 18.1095 15.2127 18.1091 14.9592 18.1087C13.9035 18.1072 12.8478 18.1042 11.7921 18.1009C11.6873 18.1006 11.5825 18.1003 11.4777 18.0999C11.4517 18.0999 11.4257 18.0998 11.3989 18.0997C10.9732 18.0984 10.5476 18.0975 10.1219 18.0967C9.68102 18.0959 9.24016 18.0947 8.79929 18.0931C8.55324 18.0923 8.30719 18.0916 8.06114 18.0913C7.83108 18.0911 7.60102 18.0904 7.37096 18.0893C7.28681 18.089 7.20265 18.0888 7.1185 18.0889C7.00344 18.0889 6.88841 18.0883 6.77336 18.0876C6.72383 18.0878 6.72383 18.0878 6.67331 18.0881C6.19568 18.0828 5.79656 17.8918 5.44915 17.5699C5.14022 17.2365 4.99155 16.8049 5.00037 16.3545C5.02949 15.9205 5.18667 15.5245 5.34589 15.1254C5.38664 15.0221 5.42716 14.9188 5.46757 14.8154C5.47781 14.7893 5.48805 14.7632 5.49861 14.7362C5.58803 14.5061 5.66959 14.2736 5.75032 14.0403C5.87206 13.6893 6.00188 13.3414 6.13193 12.9935C6.15766 12.9244 6.18339 12.8554 6.20911 12.7864C6.3563 12.3917 6.50505 11.9977 6.65519 11.6042C6.76252 11.3228 6.86752 11.0411 6.96595 10.7565C6.99631 10.6692 7.0267 10.5819 7.05712 10.4946C7.08236 10.4221 7.10749 10.3495 7.13256 10.2768C7.42094 9.44662 7.7429 8.68943 8.55301 8.25297C8.84715 8.1171 9.15172 8.01479 9.47766 8.01414ZM18.2132 9.62096C18.0269 9.84928 17.934 10.1044 17.9522 10.4C17.985 10.6162 18.0394 10.7933 18.2116 10.9363C18.5069 11.1384 18.7698 11.1524 19.1198 11.1266C19.4731 11.0389 19.6918 10.8407 19.8875 10.5417C20.0057 10.3177 20.0636 10.1057 20.0135 9.85532C19.9363 9.60612 19.8196 9.43567 19.5951 9.29864C19.1001 9.09716 18.5799 9.25027 18.2132 9.62096Z" fill="url(#paint0_linear_2092_135)"/>
<path d="M22.5777 10.5302C23.1378 10.5394 23.6881 10.7409 24.1001 11.1286C24.5239 11.5935 24.7197 12.145 24.7133 12.7718C24.6755 13.432 24.4191 14.055 24.2015 14.6729C24.1819 14.7287 24.1623 14.7845 24.1428 14.8403C24.0633 15.0668 23.9837 15.2933 23.9036 15.5196C23.7686 15.9017 23.6385 16.2852 23.5114 16.67C23.4009 17.0047 23.2883 17.338 23.164 17.6678C23.0699 17.9185 22.9834 18.1715 22.8968 18.4249C22.8323 18.6123 22.7675 18.7997 22.7026 18.987C22.6937 19.0127 22.6848 19.0383 22.6756 19.0648C22.6198 19.2255 22.5635 19.386 22.5064 19.5463C22.4882 19.5974 22.4703 19.6486 22.4525 19.6998C22.296 20.1502 22.1057 20.5926 21.7703 20.9406C21.7531 20.9585 21.736 20.9763 21.7183 20.9947C21.6693 21.0451 21.6193 21.0946 21.5692 21.144C21.5326 21.1805 21.5326 21.1805 21.4952 21.2178C20.7191 21.9432 19.8043 22.002 18.8014 21.9992C18.6699 21.999 18.5384 21.9993 18.407 21.9996C18.1502 22.0001 17.8934 22 17.6367 21.9997C17.4279 21.9995 17.2191 21.9994 17.0103 21.9995C16.9805 21.9996 16.9507 21.9996 16.9199 21.9996C16.8593 21.9996 16.7987 21.9997 16.7381 21.9997C16.1712 22 15.6044 21.9997 15.0375 21.9991C14.5519 21.9986 14.0662 21.9987 13.5806 21.9992C13.0154 21.9998 12.4502 22 11.885 21.9996C11.8246 21.9996 11.7643 21.9996 11.704 21.9995C11.6594 21.9995 11.6594 21.9995 11.614 21.9995C11.4056 21.9994 11.1972 21.9996 10.9887 21.9998C10.7346 22.0001 10.4804 22 10.2263 21.9995C10.0968 21.9992 9.96733 21.9991 9.83784 21.9994C9.69714 21.9998 9.55644 21.9993 9.41574 21.9988C9.35509 21.9992 9.35509 21.9992 9.29322 21.9995C8.73943 21.9954 8.22762 21.8229 7.82273 21.4365C7.40961 20.976 7.24419 20.4765 7.27434 19.8644C7.30762 19.463 7.45987 19.0181 7.63993 18.6579C8.0622 18.6579 8.48446 18.6579 8.91952 18.6579C8.95572 18.8389 8.99191 19.0199 9.0292 19.2063C9.20793 19.551 9.44999 19.7217 9.81432 19.8407C9.96684 19.8798 10.115 19.8795 10.2717 19.8783C10.3247 19.8786 10.3247 19.8786 10.3787 19.8788C10.4962 19.8793 10.6137 19.8789 10.7313 19.8786C10.8158 19.8787 10.9004 19.8789 10.985 19.8792C11.2143 19.8797 11.4435 19.8795 11.6728 19.8791C11.9132 19.8789 12.1535 19.8791 12.3939 19.8793C12.8235 19.8795 13.2532 19.8792 13.6828 19.8786C14.0715 19.8781 14.4602 19.8782 14.8488 19.8787C15.301 19.8793 15.7532 19.8795 16.2054 19.8792C16.4445 19.879 16.6835 19.879 16.9226 19.8794C17.1476 19.8797 17.3725 19.8794 17.5975 19.8788C17.6798 19.8787 17.762 19.8787 17.8443 19.879C18.7782 19.8815 19.532 19.7041 20.2275 19.0547C20.7 18.561 20.8821 17.9008 21.0939 17.2687C21.1016 17.2456 21.1094 17.2226 21.1173 17.1989C21.1898 16.9824 21.2617 16.7658 21.3333 16.5491C21.4723 16.1293 21.6172 15.7117 21.7634 15.2944C21.9424 14.7833 22.1207 14.2719 22.2962 13.7595C22.3186 13.6943 22.341 13.6291 22.3634 13.5639C22.3946 13.4734 22.4256 13.3829 22.4565 13.2924C22.4701 13.2529 22.4701 13.2529 22.484 13.2127C22.6501 12.7241 22.7119 12.2671 22.4832 11.7847C22.3427 11.5503 22.1769 11.398 21.9348 11.2729C21.9571 11.1058 22.0012 10.9611 22.0628 10.8044C22.079 10.7627 22.0952 10.721 22.1119 10.678C22.198 10.4748 22.3817 10.5303 22.5777 10.5302Z" fill="url(#paint1_linear_2092_135)"/>
<path d="M22.3137 10.5213C22.3851 10.5234 22.3851 10.5234 22.4581 10.5257C22.5291 10.5269 22.5291 10.5269 22.6016 10.5281C22.7317 10.5409 22.837 10.5679 22.9585 10.6148C22.9464 10.6389 22.9343 10.6631 22.9219 10.6879C22.6927 10.6759 22.4634 10.6638 22.2273 10.6514C22.2024 10.7373 22.2024 10.7373 22.177 10.825C22.1423 10.9449 22.1036 11.0532 22.0445 11.1632C21.9962 11.0667 22.0146 11.0191 22.0353 10.9141C22.0412 10.883 22.047 10.8518 22.053 10.8197C22.1319 10.5514 22.1319 10.5514 22.3137 10.5213Z" fill="#1DB6A5"/>
<path d="M21.2035 8.49432C21.349 8.59943 21.4388 8.70714 21.5325 8.85992C21.5205 8.88405 21.5084 8.90818 21.496 8.93304C21.435 8.87211 21.3741 8.81118 21.3132 8.75024C21.2804 8.72197 21.2804 8.72197 21.2469 8.69312C21.2035 8.64056 21.2035 8.64056 21.2035 8.49432Z" fill="#1DB6A5"/>
<path d="M23.9089 11.017C24.0051 11.0726 24.086 11.1209 24.1649 11.1998C24.1511 11.2774 24.1511 11.2774 24.1283 11.346C24.0914 11.3121 24.0549 11.2777 24.0186 11.2432C23.9881 11.2145 23.9881 11.2145 23.9569 11.1853C23.9089 11.1266 23.9089 11.1266 23.9089 11.017Z" fill="#1DB6A5"/>
<path d="M23.0681 10.6514C23.1459 10.6678 23.2235 10.6846 23.3012 10.7016C23.3444 10.711 23.3877 10.7203 23.4323 10.7299C23.5434 10.761 23.5434 10.761 23.6165 10.8342C23.478 10.8866 23.3948 10.8528 23.2601 10.7999C23.206 10.779 23.206 10.779 23.1509 10.7577C23.1236 10.7468 23.0963 10.7358 23.0681 10.7245C23.0681 10.7003 23.0681 10.6762 23.0681 10.6514Z" fill="#1DB6A5"/>
<path d="M20.582 8.16528C20.7922 8.1927 20.7922 8.1927 20.8745 8.27496C20.8504 8.29909 20.8263 8.32322 20.8014 8.34808C20.729 8.31189 20.6566 8.27569 20.582 8.2384C20.582 8.21427 20.582 8.19014 20.582 8.16528Z" fill="#1DB6A5"/>
<defs>
<linearGradient id="paint0_linear_2092_135" x1="13.3678" y1="8" x2="13.3678" y2="18.1173" gradientUnits="userSpaceOnUse">
<stop stop-color="#1DB6A5"/>
<stop offset="1" stop-color="#159286"/>
</linearGradient>
<linearGradient id="paint1_linear_2092_135" x1="15.9922" y1="10.5233" x2="15.9922" y2="22" gradientUnits="userSpaceOnUse">
<stop stop-color="#1DB6A5"/>
<stop offset="1" stop-color="#159286"/>
</linearGradient>
</defs>
</svg>
