<svg width="31" height="30" viewBox="0 0 31 30" fill="none" xmlns="http://www.w3.org/2000/svg">
<rect width="31" height="30" rx="8" fill="black"/>
<path d="M11.3772 5.99626C11.9086 5.72904 12.8594 5.3915 13.4746 5.2368C14.2577 5.0399 14.9009 4.96958 15.6419 5.01178C16.2152 5.0399 17.0123 5.12429 17.3898 5.20867C17.8093 5.30712 18.2567 5.51808 18.5084 5.75717C18.7461 5.98219 18.9698 6.34786 19.0258 6.57288C19.0677 6.79791 19.0397 7.16357 18.9419 7.40266C18.844 7.62769 18.5503 7.99335 18.2847 8.20431C18.019 8.41528 17.5016 8.71062 17.1101 8.87939C16.7326 9.04816 15.8097 9.32944 15.0826 9.52634C14.3555 9.72323 13.3907 10.0045 12.9573 10.1592C12.5098 10.2999 12.1742 10.4968 12.2162 10.5671C12.2581 10.6374 12.328 10.6796 12.398 10.6515C12.4539 10.6093 13.6984 10.4546 15.1526 10.2999C16.6068 10.1311 18.1868 9.90606 18.6482 9.77949C19.1097 9.66698 19.7529 9.41382 20.0884 9.23099C20.41 9.03409 20.8016 8.66843 20.9554 8.41528C21.1092 8.17619 21.235 7.7402 21.235 7.47298C21.221 6.98074 21.221 6.98074 21.5426 7.20577C21.7244 7.33234 21.9901 7.65582 22.1299 7.90897C22.3536 8.31683 22.3676 8.45747 22.2418 8.90752C22.1439 9.20286 21.8642 9.61072 21.6265 9.80762C21.3749 10.0186 20.8855 10.328 20.5359 10.4968C20.1863 10.6796 19.4033 10.9468 18.7881 11.1156C18.1728 11.2703 16.5089 11.5516 15.0826 11.7485C13.6564 11.9454 12.0344 12.2266 11.4891 12.3954C10.9298 12.5501 10.0908 12.8595 9.62938 13.0986C9.16796 13.3377 8.55272 13.7315 8.27306 13.9706C7.99341 14.2237 7.518 14.8144 7.22436 15.2785C6.93072 15.7426 6.65107 16.3333 6.6231 16.5724C6.58116 16.8256 6.48328 17.0365 6.41336 17.0365C6.34345 17.0365 6.23159 16.924 6.18964 16.7834C6.13371 16.6568 6.0638 15.8833 6.02185 15.0676C5.96592 13.8581 6.00787 13.3658 6.25955 12.3954C6.41336 11.7344 6.73497 10.8202 6.95869 10.3561C7.19639 9.892 7.68579 9.13254 8.04934 8.66843C8.41289 8.21838 9.09804 7.52924 9.55947 7.14951C10.0209 6.78385 10.8459 6.24941 11.3772 5.99626Z" fill="white"/>
<path d="M22.074 11.3406C22.4935 11.0031 22.9968 10.4686 23.1786 10.1733C23.3604 9.86387 23.5841 9.65291 23.668 9.70917C23.7379 9.75136 23.9756 10.1733 24.1854 10.6374C24.3951 11.1015 24.6748 11.9594 24.8006 12.536C24.9964 13.3658 25.0383 13.9284 24.9684 15.1379C24.9125 16.2911 24.8006 16.9522 24.521 17.7397C24.3252 18.3164 23.9197 19.1743 23.6401 19.6384C23.3604 20.1025 22.8291 20.7916 22.4795 21.1854C22.1299 21.5652 21.4028 22.184 20.8715 22.5637C20.3122 22.9434 19.4033 23.4076 18.7181 23.6466C18.061 23.8717 17.0262 24.1248 16.411 24.2233C15.4602 24.3639 15.1246 24.3498 14.1738 24.1529C13.5585 24.0123 12.8874 23.7873 12.6636 23.6326C12.4539 23.4919 12.1183 23.0278 11.9225 22.62C11.6569 22.0715 11.573 21.6636 11.559 20.9745C11.559 20.2713 11.6429 19.8915 11.9086 19.3571C12.0903 18.9633 12.5098 18.4148 12.8314 18.1195C13.139 17.8382 13.6984 17.4444 14.0619 17.2616C14.4394 17.0787 15.3064 16.7553 15.9915 16.5443C16.6767 16.3333 17.6555 15.9817 18.1588 15.7426C18.6622 15.5176 19.3753 15.1379 19.7668 14.8847C20.1444 14.6456 20.41 14.4206 20.3262 14.3925C20.2423 14.3644 19.7808 14.4769 19.2774 14.6316C18.7741 14.7863 17.5576 15.0816 16.5508 15.2785C15.5441 15.4754 14.2297 15.7286 13.6145 15.8552C12.9992 15.9817 12.1742 16.2349 11.7967 16.4318C11.4052 16.6287 10.8599 17.0084 10.5662 17.3038C10.2726 17.585 9.89506 18.0632 9.72726 18.3726C9.50354 18.8086 9.43363 19.1743 9.44761 19.99C9.44761 20.6229 9.54549 21.2839 9.68532 21.6355C9.81116 21.973 9.86709 22.2402 9.79718 22.2402C9.74125 22.2543 9.44761 21.9871 9.15397 21.6495C8.84635 21.312 8.45484 20.7354 8.27306 20.3416C8.03536 19.8072 7.95146 19.3852 7.95146 18.5836C7.95146 17.7538 8.02137 17.3881 8.28705 16.8256C8.46882 16.4458 8.84635 15.9114 9.12601 15.6723C9.40566 15.4192 9.92302 15.0535 10.2866 14.8707C10.6641 14.6878 11.2654 14.4347 11.6569 14.3222C12.0344 14.1956 12.6636 14.0268 13.0551 13.9565C13.4327 13.8862 14.5653 13.7174 15.572 13.5908C16.5788 13.4643 17.8372 13.2392 18.3686 13.0986C18.8999 12.958 19.7948 12.6486 20.3262 12.3954C20.8575 12.1563 21.6545 11.6781 22.074 11.3406Z" fill="white"/>
</svg>
