<svg width="20" height="14" viewBox="0 0 20 14" fill="none" xmlns="http://www.w3.org/2000/svg">
<path d="M4.47766 0.0141401C4.51594 0.0139771 4.55422 0.0138141 4.59365 0.0136462C4.63547 0.013653 4.67729 0.0136597 4.72038 0.0136666C4.76499 0.0135322 4.8096 0.0133978 4.85556 0.0132593C4.97928 0.0129262 5.103 0.0127572 5.22672 0.0126601C5.36021 0.0125172 5.49369 0.012167 5.62718 0.011848C5.94952 0.0111262 6.27186 0.0107575 6.59419 0.0104321C6.74612 0.0102718 6.89804 0.0100756 7.04996 0.00988415C7.55521 0.00926224 8.06047 0.00873238 8.56572 0.00846751C8.69678 0.00839769 8.82784 0.00832748 8.9589 0.00825597C9.00776 0.00822945 9.00776 0.00822945 9.0576 0.00820238C9.58495 0.0078991 10.1123 0.00697305 10.6396 0.00578524C11.1815 0.00457479 11.7233 0.00391756 12.2651 0.00380086C12.5692 0.00372183 12.8732 0.00340384 13.1773 0.00246785C13.4363 0.00167234 13.6953 0.00138086 13.9543 0.00173544C14.0863 0.00190105 14.2183 0.00183549 14.3503 0.00112265C14.4938 0.000354401 14.6373 0.000735178 14.7808 0.00121525C14.822 0.000814219 14.8632 0.000413185 14.9056 0C15.4431 0.00431935 15.9181 0.193827 16.3107 0.559018C16.6216 0.893396 16.7386 1.29177 16.7355 1.74104C16.7213 2.08774 16.61 2.39945 16.4962 2.72447C16.4791 2.77366 16.4621 2.82285 16.445 2.87205C16.3346 3.19057 16.2224 3.50847 16.1097 3.8262C16.0194 4.08081 15.9306 4.33588 15.8427 4.5913C15.8285 4.63252 15.8143 4.67373 15.7996 4.7162C15.7075 4.98423 15.6161 5.25251 15.5249 5.52086C15.4777 5.65963 15.4306 5.7984 15.3834 5.93716C15.3716 5.97176 15.3598 6.00636 15.3477 6.04201C15.1663 6.57506 14.9811 7.10657 14.7911 7.63662C14.7364 7.78966 14.6828 7.94299 14.6309 8.09704C14.3676 8.87803 13.9932 9.48311 13.2378 9.86733C13.2138 9.87955 13.1898 9.89176 13.165 9.90435C12.6306 10.1637 12.0267 10.1145 11.4477 10.1121C11.3702 10.1119 11.2927 10.1117 11.2152 10.1116C11.05 10.1113 10.8848 10.1108 10.7195 10.1103C10.4661 10.1095 10.2127 10.1091 9.95921 10.1087C8.90351 10.1072 7.84782 10.1042 6.79212 10.1009C6.68733 10.1006 6.58253 10.1003 6.47774 10.0999C6.45171 10.0999 6.42569 10.0998 6.39887 10.0997C5.97321 10.0984 5.54755 10.0975 5.12189 10.0967C4.68102 10.0959 4.24016 10.0947 3.79929 10.0931C3.55324 10.0923 3.30719 10.0916 3.06114 10.0913C2.83108 10.0911 2.60102 10.0904 2.37096 10.0893C2.28681 10.089 2.20265 10.0888 2.1185 10.0889C2.00344 10.0889 1.88841 10.0883 1.77336 10.0876C1.72383 10.0878 1.72383 10.0878 1.67331 10.0881C1.19568 10.0828 0.796556 9.8918 0.449147 9.56986C0.140224 9.2365 -0.00845097 8.80493 0.000370514 8.35446C0.0294908 7.92052 0.186675 7.52454 0.345894 7.12535C0.386644 7.02213 0.427164 6.91881 0.46757 6.81545C0.477812 6.7893 0.488054 6.76316 0.498607 6.73622C0.588025 6.5061 0.669586 6.27355 0.750323 6.04028C0.872063 5.6893 1.00188 5.34142 1.13193 4.99346C1.15766 4.92443 1.18339 4.8554 1.20911 4.78637C1.3563 4.39173 1.50505 3.99772 1.65519 3.60419C1.76252 3.32282 1.86752 3.04107 1.96595 2.75646C1.99631 2.66917 2.0267 2.58189 2.05712 2.49461C2.08236 2.42205 2.10749 2.34945 2.13256 2.27683C2.42094 1.44662 2.7429 0.689434 3.55301 0.252973C3.84715 0.117099 4.15172 0.0147861 4.47766 0.0141401ZM13.2132 1.62096C13.0269 1.84928 12.934 2.10437 12.9522 2.4C12.985 2.6162 13.0394 2.79331 13.2116 2.93626C13.5069 3.13835 13.7698 3.15236 14.1198 3.12663C14.4731 3.03886 14.6918 2.84068 14.8875 2.54167C15.0057 2.31767 15.0636 2.10565 15.0135 1.85532C14.9363 1.60612 14.8196 1.43567 14.5951 1.29864C14.1001 1.09716 13.5799 1.25027 13.2132 1.62096Z" fill="white"/>
<path d="M17.5777 2.53016C18.1378 2.53941 18.6881 2.74095 19.1001 3.12862C19.5239 3.59347 19.7197 4.14504 19.7133 4.77181C19.6755 5.432 19.4191 6.05495 19.2015 6.67292C19.1819 6.72872 19.1623 6.78452 19.1428 6.84033C19.0633 7.06684 18.9837 7.29331 18.9036 7.51961C18.7686 7.90168 18.6385 8.28519 18.5114 8.66999C18.4009 9.00468 18.2883 9.33796 18.164 9.66782C18.0699 9.91847 17.9834 10.1715 17.8968 10.4249C17.8323 10.6123 17.7675 10.7997 17.7026 10.987C17.6937 11.0127 17.6848 11.0383 17.6756 11.0648C17.6198 11.2255 17.5635 11.386 17.5064 11.5463C17.4882 11.5974 17.4703 11.6486 17.4525 11.6998C17.296 12.1502 17.1057 12.5926 16.7703 12.9406C16.7531 12.9585 16.736 12.9763 16.7183 12.9947C16.6693 13.0451 16.6193 13.0946 16.5692 13.144C16.5326 13.1805 16.5326 13.1805 16.4952 13.2178C15.7191 13.9432 14.8043 14.002 13.8014 13.9992C13.6699 13.999 13.5384 13.9993 13.407 13.9996C13.1502 14.0001 12.8934 14 12.6367 13.9997C12.4279 13.9995 12.2191 13.9994 12.0103 13.9995C11.9805 13.9996 11.9507 13.9996 11.9199 13.9996C11.8593 13.9996 11.7987 13.9997 11.7381 13.9997C11.1712 14 10.6044 13.9997 10.0375 13.9991C9.55186 13.9986 9.06622 13.9987 8.58057 13.9992C8.01537 13.9998 7.45017 14 6.88496 13.9996C6.82463 13.9996 6.7643 13.9996 6.70397 13.9995C6.65945 13.9995 6.65945 13.9995 6.61403 13.9995C6.4056 13.9994 6.19716 13.9996 5.98872 13.9998C5.73458 14.0001 5.48044 14 5.2263 13.9995C5.09681 13.9992 4.96733 13.9991 4.83784 13.9994C4.69714 13.9998 4.55644 13.9993 4.41574 13.9988C4.35509 13.9992 4.35509 13.9992 4.29322 13.9995C3.73943 13.9954 3.22762 13.8229 2.82273 13.4365C2.40961 12.976 2.24419 12.4765 2.27434 11.8644C2.30762 11.463 2.45987 11.0181 2.63993 10.6579C3.0622 10.6579 3.48446 10.6579 3.91952 10.6579C3.95572 10.8389 3.99191 11.0199 4.0292 11.2063C4.20793 11.551 4.44999 11.7217 4.81432 11.8407C4.96684 11.8798 5.115 11.8795 5.27171 11.8783C5.32466 11.8786 5.32466 11.8786 5.37868 11.8788C5.49621 11.8793 5.61373 11.8789 5.73126 11.8786C5.81584 11.8787 5.90043 11.8789 5.98501 11.8792C6.21427 11.8797 6.44353 11.8795 6.67279 11.8791C6.91315 11.8789 7.15351 11.8791 7.39388 11.8793C7.82353 11.8795 8.25319 11.8792 8.68284 11.8786C9.0715 11.8781 9.46016 11.8782 9.84882 11.8787C10.301 11.8793 10.7532 11.8795 11.2054 11.8792C11.4445 11.879 11.6835 11.879 11.9226 11.8794C12.1476 11.8797 12.3725 11.8794 12.5975 11.8788C12.6798 11.8787 12.762 11.8787 12.8443 11.879C13.7782 11.8815 14.532 11.7041 15.2275 11.0547C15.7 10.561 15.8821 9.90081 16.0939 9.26866C16.1016 9.24562 16.1094 9.22258 16.1173 9.19885C16.1898 8.98242 16.2617 8.76583 16.3333 8.54913C16.4723 8.12935 16.6172 7.71174 16.7634 7.29443C16.9424 6.78327 17.1207 6.27189 17.2962 5.75954C17.3186 5.69432 17.341 5.62911 17.3634 5.56392C17.3946 5.47344 17.4256 5.38291 17.4565 5.29236C17.4701 5.25293 17.4701 5.25293 17.484 5.21271C17.6501 4.72411 17.7119 4.2671 17.4832 3.78469C17.3427 3.55026 17.1769 3.39797 16.9348 3.27286C16.9571 3.10583 17.0012 2.96111 17.0628 2.80444C17.079 2.76273 17.0952 2.72102 17.1119 2.67805C17.198 2.47478 17.3817 2.53033 17.5777 2.53016Z" fill="white"/>
<path d="M17.3137 2.52126C17.3851 2.52345 17.3851 2.52345 17.4581 2.52568C17.5291 2.52688 17.5291 2.52688 17.6016 2.52811C17.7317 2.54095 17.837 2.56789 17.9585 2.6148C17.9464 2.63893 17.9343 2.66306 17.9219 2.68792C17.6927 2.67585 17.4634 2.66379 17.2273 2.65136C17.2024 2.73732 17.2024 2.73732 17.177 2.82502C17.1423 2.94489 17.1036 3.05317 17.0445 3.16319C16.9962 3.06674 17.0146 3.01908 17.0353 2.91413C17.0412 2.88298 17.047 2.85183 17.053 2.81973C17.1319 2.55145 17.1319 2.55145 17.3137 2.52126Z" fill="white"/>
<path d="M16.2035 0.494324C16.349 0.599431 16.4388 0.707144 16.5325 0.859921C16.5205 0.884051 16.5084 0.90818 16.496 0.933041C16.435 0.872108 16.3741 0.811175 16.3132 0.750242C16.2804 0.721965 16.2804 0.721965 16.2469 0.693117C16.2035 0.640563 16.2035 0.640563 16.2035 0.494324Z" fill="white"/>
<path d="M18.9089 3.01694C19.0051 3.07259 19.086 3.12091 19.1649 3.19974C19.1511 3.27743 19.1511 3.27743 19.1283 3.34598C19.0914 3.31206 19.0549 3.2777 19.0186 3.24316C18.9881 3.21453 18.9881 3.21453 18.9569 3.18532C18.9089 3.12662 18.9089 3.12662 18.9089 3.01694Z" fill="white"/>
<path d="M18.0681 2.65135C18.1459 2.66778 18.2235 2.68461 18.3012 2.70162C18.3444 2.71095 18.3877 2.72028 18.4323 2.7299C18.5434 2.76103 18.5434 2.76103 18.6165 2.83415C18.478 2.88658 18.3948 2.8528 18.2601 2.79988C18.206 2.77902 18.206 2.77902 18.1509 2.75775C18.1236 2.74677 18.0963 2.73578 18.0681 2.72447C18.0681 2.70034 18.0681 2.67621 18.0681 2.65135Z" fill="white"/>
<path d="M15.582 0.165283C15.7922 0.192703 15.7922 0.192703 15.8745 0.274962C15.8504 0.299092 15.8263 0.323221 15.8014 0.348082C15.729 0.311888 15.6566 0.275694 15.582 0.238403C15.582 0.214273 15.582 0.190144 15.582 0.165283Z" fill="white"/>
</svg>
