<svg width="60" height="61" viewBox="0 0 60 61" fill="none" xmlns="http://www.w3.org/2000/svg">
<path d="M16.9807 3.14608C18.6586 2.30224 21.6612 1.23633 23.6041 0.74779C26.0768 0.126011 28.108 -0.0960528 30.4483 0.0371856C32.2586 0.126011 34.7755 0.392488 35.9677 0.658965C37.2924 0.969854 38.7054 1.63605 39.5002 2.39106C40.2509 3.10167 40.9574 4.2564 41.134 4.967C41.2664 5.67761 41.1781 6.83234 40.869 7.58736C40.56 8.29796 39.6327 9.4527 38.7937 10.1189C37.9548 10.7851 36.321 11.7177 35.0846 12.2507C33.8924 12.7837 30.9781 13.6719 28.682 14.2937C26.3859 14.9155 23.3392 15.8037 21.9703 16.2923C20.5573 16.7364 19.4976 17.3582 19.6301 17.5802C19.7625 17.8023 19.9833 17.9355 20.2041 17.8467C20.3807 17.7135 24.3106 17.2249 28.9028 16.7364C33.495 16.2034 38.4846 15.4928 39.9418 15.0931C41.3989 14.7378 43.4301 13.9384 44.4898 13.361C45.5054 12.7392 46.7418 11.5845 47.2275 10.7851C47.7132 10.0301 48.1106 8.65327 48.1106 7.80942C48.0665 6.25498 48.0665 6.25498 49.082 6.96558C49.6561 7.3653 50.495 8.38679 50.9366 9.18622C51.6431 10.4742 51.6872 10.9183 51.2898 12.3395C50.9807 13.2722 50.0976 14.5602 49.347 15.1819C48.5522 15.8481 47.0067 16.8252 45.9028 17.3582C44.7989 17.9355 42.3262 18.7794 40.3833 19.3123C38.4405 19.8009 33.1859 20.6891 28.682 21.3109C24.1781 21.9327 19.056 22.8209 17.334 23.3539C15.5677 23.8424 12.9184 24.8195 11.4612 25.5745C10.0041 26.3296 8.06121 27.5731 7.17809 28.3281C6.29498 29.1276 4.79367 30.9929 3.8664 32.4585C2.93913 33.9241 2.05601 35.7895 1.9677 36.5445C1.83523 37.3439 1.52614 38.0101 1.30536 38.0101C1.08458 38.0101 0.731332 37.6548 0.598864 37.2107C0.422241 36.811 0.201461 34.3683 0.0689936 31.7923C-0.10763 27.9728 0.0248377 26.4184 0.819644 23.3539C1.30536 21.2665 2.32094 18.3797 3.02744 16.914C3.77809 15.4484 5.32355 13.0501 6.4716 11.5845C7.61965 10.1633 9.78329 7.98707 11.2404 6.78793C12.6976 5.6332 15.3028 3.94551 16.9807 3.14608Z" fill="black"/>
<path d="M50.76 20.0229C52.0846 18.957 53.6743 17.2693 54.2483 16.3367C54.8223 15.3596 55.5288 14.6934 55.7937 14.8711C56.0145 15.0043 56.7652 16.3367 57.4275 17.8023C58.0898 19.2679 58.973 21.9771 59.3704 23.798C59.9885 26.4184 60.121 28.1949 59.9002 32.0144C59.7236 35.6562 59.3704 37.7436 58.4872 40.2308C57.8691 42.0517 56.5885 44.7609 55.7054 46.2265C54.8223 47.6921 53.1444 49.8683 52.0405 51.1119C50.9366 52.311 48.6405 54.2652 46.9626 55.4643C45.1963 56.6635 42.3262 58.1291 40.1626 58.8841C38.0872 59.5947 34.8197 60.3942 32.8768 60.7051C29.8742 61.1492 28.8145 61.1048 25.8119 60.483C23.869 60.0389 21.7495 59.3283 21.043 58.8397C20.3807 58.3956 19.321 56.93 18.7028 55.642C17.8638 53.9099 17.5989 52.6219 17.5547 50.4457C17.5547 48.2251 17.8197 47.0259 18.6586 45.3382C19.2327 44.0947 20.5573 42.3626 21.5729 41.4299C22.5443 40.5416 24.3106 39.2981 25.4586 38.7207C26.6508 38.1434 29.3885 37.1219 31.5522 36.4557C33.7158 35.7895 36.8067 34.6792 38.3963 33.9241C39.9859 33.2135 42.2379 32.0144 43.4742 31.215C44.6665 30.4599 45.5054 29.7493 45.2405 29.6605C44.9755 29.5717 43.5184 29.927 41.9288 30.4155C40.3392 30.9041 36.4976 31.8367 33.3184 32.4585C30.1392 33.0803 25.9885 33.8797 24.0456 34.2794C22.1028 34.6792 19.4976 35.4786 18.3054 36.1004C17.069 36.7221 15.3469 37.9213 14.4197 38.854C13.4924 39.7422 12.3002 41.2523 11.7703 42.2293C11.0638 43.6061 10.843 44.7609 10.8872 47.3368C10.8872 49.3354 11.1963 51.4228 11.6378 52.5331C12.0352 53.599 12.2119 54.4428 11.9911 54.4428C11.8145 54.4873 10.8872 53.6434 9.95992 52.5775C8.98849 51.5116 7.75212 49.6907 7.17809 48.4471C6.42744 46.7594 6.16251 45.4271 6.16251 42.8955C6.16251 40.2752 6.38329 39.1204 7.22225 37.3439C7.79628 36.1448 8.98849 34.4571 9.8716 33.7021C10.7547 32.9026 12.3885 31.7479 13.5365 31.1705C14.7288 30.5932 16.6275 29.7938 17.8638 29.4384C19.056 29.0387 21.043 28.5058 22.2794 28.2837C23.4716 28.0617 27.0482 27.5287 30.2275 27.129C33.4067 26.7293 37.3807 26.0187 39.0587 25.5745C40.7366 25.1304 43.5626 24.1533 45.2405 23.3539C46.9184 22.5989 49.4353 21.0888 50.76 20.0229Z" fill="black"/>
</svg>
