<svg version="1.1" id="Layer_1" xmlns="http://www.w3.org/2000/svg" xmlns:xlink="http://www.w3.org/1999/xlink" x="0px" y="0px" viewBox="0 0 56.4 72" style="enable-background:new 0 0 56.4 72;" xml:space="preserve">
 <style type="text/css">
  .st0{fill-rule:evenodd;clip-rule:evenodd;fill:#00D395;}
 </style>
 <g>
  <g>
   <g>
    <path class="st0" d="M2.9,56.1C1.1,55,0,53.1,0,51V39.3c0-0.4,0.1-0.9,0.3-1.3c0.7-1.2,2.2-1.6,3.4-0.9l26.4,15.4
				c1.5,0.9,2.5,2.6,2.5,4.3V69c0,0.6-0.2,1.1-0.4,1.6c-0.9,1.4-2.7,1.9-4.2,1L2.9,56.1z M42.3,33.9c1.5,0.9,2.5,2.6,2.5,4.3v24.6
				c0,0.7-0.4,1.4-1,1.8L38,67.9c-0.1,0-0.2,0.1-0.2,0.1V54.3c0-1.8-0.9-3.4-2.4-4.3L12.1,36.1V20.6c0-0.4,0.1-0.9,0.3-1.3
				c0.7-1.2,2.2-1.6,3.4-0.9L42.3,33.9z M53.9,15.7c1.6,0.9,2.5,2.6,2.5,4.4v36c0,0.7-0.4,1.4-1.1,1.8l-5.5,3v-25
				c0-1.8-0.9-3.4-2.4-4.3L23.7,17.2V2.5c0-0.4,0.1-0.9,0.3-1.3c0.7-1.2,2.2-1.6,3.4-0.9L53.9,15.7z">
    </path>
   </g>
  </g>
 </g>
</svg>